# xmcd
#
# Track frame offsets:
#	150
#	17518
#	33473
#	44075
#	58118
#	66303
#	82068
#	95460
#	108823
#	124838
#
# Disc length: 1823 seconds
#
# Revision: 1
# Processed by: cddbd v1.5.1PL2 Copyright (c) Steve Scherf et al.
# Submitted via: audiograbber 1.83.01
#
DISCID=87071d0a
DTITLE=Spencers - It'll Be Worth It After All
DYEAR=1990
DGENRE=Southern Gospel
TTITLE0=It'll Be Worth It After All
TTITLE1=With You As My Shepherd
TTITLE2=Saved Through Jesus' Blood
TTITLE3=God Has A Place
TTITLE4=Heaven Won't Always Be Someday
TTITLE5=Let's Meet By The River
TTITLE6=Beautiful
TTITLE7=Face To Face
TTITLE8=Family Bible
TTITLE9=My Visit To Heaven
EXTD=
EXTT0=
EXTT1=
EXTT2=
EXTT3=
EXTT4=
EXTT5=
EXTT6=
EXTT7=
EXTT8=
EXTT9=
PLAYORDER=
